<svg width="45" height="45" viewBox="0 0 45 45" fill="none" xmlns="http://www.w3.org/2000/svg">
<rect width="45" height="45" rx="22.5" fill="#BEBEBE"/>
<path fill-rule="evenodd" clip-rule="evenodd" d="M16.3498 35.535C11.8516 33.4175 8.63279 29.045 8.13758 23.875H6.07422C6.77576 32.345 13.86 39 22.5123 39L23.4202 38.9587L18.1793 33.72L16.3498 35.535ZM17.574 26.57C17.3127 26.57 17.0651 26.5287 16.8587 26.46C16.6386 26.3775 16.4598 26.2812 16.3085 26.13C16.1572 25.9925 16.0334 25.8275 15.9509 25.6213C15.8683 25.4288 15.8271 25.2087 15.8271 24.975H14.0388C14.0388 25.47 14.1351 25.91 14.3277 26.2812C14.5203 26.6525 14.7816 26.9688 15.098 27.23C15.4281 27.4775 15.7995 27.67 16.226 27.7938C16.6386 27.9312 17.0788 28 17.5465 28C18.0555 28 18.5369 27.9312 18.9634 27.7938C19.4035 27.6562 19.7887 27.45 20.1051 27.1887C20.4215 26.9275 20.6828 26.5975 20.8617 26.1987C21.0405 25.8 21.1368 25.36 21.1368 24.865C21.1368 24.6038 21.1093 24.3425 21.0405 24.095C20.9717 23.8475 20.8754 23.6137 20.7241 23.3937C20.5865 23.1737 20.394 22.9813 20.1739 22.8025C19.94 22.6238 19.6649 22.4862 19.3348 22.3762C19.6099 22.2525 19.8437 22.1012 20.0501 21.9225C20.2564 21.7437 20.4215 21.5512 20.559 21.345C20.6966 21.1388 20.7929 20.9325 20.8617 20.7125C20.9304 20.4925 20.9579 20.2725 20.9579 20.0525C20.9579 19.5575 20.8754 19.1175 20.7103 18.7325C20.5453 18.3475 20.3114 18.0312 20.0088 17.7837C19.7337 17.5225 19.3623 17.33 18.9496 17.1925C18.5232 17.0688 18.0555 17 17.5465 17C17.0513 17 16.5974 17.0687 16.1709 17.22C15.7583 17.3713 15.3869 17.5775 15.0842 17.8387C14.7954 18.1 14.5615 18.4025 14.3827 18.76C14.2176 19.1175 14.1351 19.5025 14.1351 19.9288H15.9233C15.9233 19.695 15.9646 19.4888 16.0471 19.31C16.1297 19.1313 16.2397 18.9663 16.391 18.8425C16.5423 18.7188 16.7074 18.6087 16.9138 18.54C17.1201 18.4712 17.3264 18.43 17.574 18.43C18.1243 18.43 18.5369 18.5675 18.7983 18.8563C19.0597 19.1313 19.1972 19.53 19.1972 20.0387C19.1972 20.2863 19.1559 20.5062 19.0872 20.7125C19.0184 20.9187 18.8946 21.0837 18.7433 21.2212C18.592 21.3587 18.3994 21.4688 18.1793 21.5513C17.9592 21.6338 17.6841 21.675 17.3814 21.675H16.3223V23.0913H17.3814C17.6841 23.0913 17.9592 23.1187 18.2068 23.1875C18.4544 23.2563 18.6607 23.3662 18.8258 23.5037C18.9909 23.655 19.1284 23.8337 19.2247 24.0538C19.321 24.2738 19.3623 24.535 19.3623 24.8375C19.3623 25.4012 19.1972 25.8275 18.8808 26.1163C18.5644 26.4325 18.1243 26.57 17.574 26.57ZM29.3352 18.43C28.895 17.9762 28.3723 17.6188 27.767 17.3713C27.1618 17.1238 26.4878 17 25.7449 17H22.4986V28H25.6624C26.419 28 27.1205 27.8762 27.7395 27.6287C28.3585 27.3812 28.895 27.0375 29.3352 26.5837C29.7754 26.13 30.1193 25.58 30.3531 24.9475C30.587 24.3013 30.7108 23.5863 30.7108 22.7887V22.2388C30.7108 21.4413 30.587 20.7262 30.3531 20.08C30.1193 19.4338 29.7754 18.8837 29.3352 18.43ZM28.7987 22.775C28.7987 23.3525 28.73 23.8612 28.6061 24.3288C28.4686 24.7825 28.276 25.1812 28.0147 25.4975C27.7533 25.8138 27.4232 26.0613 27.038 26.2262C26.6391 26.3913 26.1851 26.4738 25.6762 26.4738H24.4244V18.54H25.7587C26.7491 18.54 27.5057 18.8563 28.0147 19.4888C28.5374 20.1213 28.7987 21.0288 28.7987 22.225V22.775ZM22.5123 6L21.6045 6.04125L26.8454 11.28L28.6749 9.45125C33.1731 11.5825 36.3919 15.9412 36.8734 21.1112H38.9367C38.2489 12.655 31.1647 6 22.5123 6Z" fill="white"/>
</svg>
