<svg width="56" height="56" viewBox="0 0 56 56" fill="none" xmlns="http://www.w3.org/2000/svg">
<circle cx="28" cy="28" r="27" fill="#9E1419" stroke="#9E1419" stroke-width="2"/>
<g clip-path="url(#clip0_376_4752)">
<path fill-rule="evenodd" clip-rule="evenodd" d="M37.6964 18.3272C37.0964 17.7272 36.1272 17.7272 35.5272 18.3272L28.0041 25.8349L20.481 18.3118C19.881 17.7118 18.9118 17.7118 18.3118 18.3118C17.7118 18.9118 17.7118 19.881 18.3118 20.481L25.8349 28.0041L18.3118 35.5272C17.7118 36.1272 17.7118 37.0964 18.3118 37.6964C18.9118 38.2964 19.881 38.2964 20.481 37.6964L28.0041 30.1733L35.5272 37.6964C36.1272 38.2964 37.0964 38.2964 37.6964 37.6964C38.2964 37.0964 38.2964 36.1272 37.6964 35.5272L30.1734 28.0041L37.6964 20.481C38.281 19.8964 38.281 18.9118 37.6964 18.3272Z" fill="white"/>
</g>
<defs>
<clipPath id="clip0_376_4752">
<rect width="21.5385" height="21.5385" fill="white" transform="translate(17.2307 17.2308)"/>
</clipPath>
</defs>
</svg>
