<svg width="108" height="118" viewBox="0 0 108 118" fill="none" xmlns="http://www.w3.org/2000/svg">
<path d="M73.8452 73.8285L55.5952 92.0785C55.0669 92.6067 54.3505 92.9035 53.6035 92.9035C52.8565 92.9035 52.14 92.6067 51.6118 92.0785L33.3785 73.8285C30.7222 71.1727 28.6151 68.0196 27.1775 64.5494C25.7399 61.0791 25 57.3597 25 53.6035C25 49.8473 25.7399 46.1278 27.1775 42.6576C28.6151 39.1874 30.7222 36.0343 33.3785 33.3785C36.0343 30.7222 39.1874 28.6151 42.6576 27.1775C46.1278 25.7399 49.8473 25 53.6035 25C57.3597 25 61.0791 25.7399 64.5494 27.1775C68.0196 28.6151 71.1727 30.7222 73.8285 33.3785C76.4859 36.0332 78.5943 39.1854 80.0333 42.6551C81.4723 46.1247 82.2138 49.8438 82.2153 53.6C82.2169 57.3563 81.4785 61.076 80.0423 64.5468C78.6061 68.0176 76.5003 71.1716 73.8452 73.8285Z" fill="#FF0F00"/>
<path d="M82.6681 24.5404L73.8291 33.3778L82.6629 24.5353C78.8474 20.7204 74.3181 17.6942 69.3334 15.6292C64.3465 13.5633 59.0014 12.5 53.6035 12.5C48.2056 12.5 42.8605 13.5633 37.8736 15.6292C32.8873 17.6949 28.3567 20.7224 24.5404 24.5389C24.5402 24.5391 24.5399 24.5394 24.5397 24.5397C24.5394 24.5399 24.5391 24.5402 24.5389 24.5404C20.7224 28.3567 17.6949 32.8873 15.6292 37.8736C13.5633 42.8605 12.5 48.2056 12.5 53.6035C12.5 59.0014 13.5633 64.3465 15.6292 69.3334C17.6943 74.3183 20.7206 78.8477 24.5356 82.6633C24.5366 82.6643 24.5376 82.6652 24.5385 82.6662C24.5392 82.6668 24.5398 82.6675 24.5404 82.6681L42.769 100.913L42.773 100.917C45.6455 103.79 49.5413 105.403 53.6035 105.403C57.6656 105.403 61.5615 103.79 64.4339 100.917L64.434 100.917L82.684 82.6673L82.6869 82.6644C86.5025 78.8463 89.5287 74.3139 91.5926 69.3261C93.6564 64.3383 94.7175 58.9928 94.7153 53.5949C94.7131 48.197 93.6476 42.8523 91.5796 37.8663C89.5126 32.8824 86.4845 28.3544 82.6681 24.5404ZM82.6681 24.5404C82.667 24.5393 82.6659 24.5382 82.6648 24.5371L82.6681 24.5404Z" stroke="white" stroke-opacity="0.5" stroke-width="25"/>
<circle cx="54" cy="53" r="12" fill="white"/>
</svg>
