<svg width="59" height="69" viewBox="0 0 59 69" fill="none" xmlns="http://www.w3.org/2000/svg">
<path d="M49.8452 49.8285L31.5952 68.0785C31.0669 68.6067 30.3505 68.9035 29.6035 68.9035C28.8565 68.9035 28.14 68.6067 27.6118 68.0785L9.37849 49.8285C6.72221 47.1727 4.61511 44.0196 3.17752 40.5494C1.73992 37.0791 1 33.3597 1 29.6035C1 25.8473 1.73992 22.1278 3.17752 18.6576C4.61511 15.1874 6.72221 12.0343 9.37849 9.37849C12.0343 6.72221 15.1874 4.61511 18.6576 3.17752C22.1278 1.73992 25.8473 1 29.6035 1C33.3597 1 37.0791 1.73992 40.5494 3.17752C44.0196 4.61511 47.1727 6.72221 49.8285 9.37849C52.4859 12.0332 54.5943 15.1854 56.0333 18.6551C57.4723 22.1247 58.2138 25.8438 58.2153 29.6C58.2169 33.3563 57.4785 37.076 56.0423 40.5468C54.6061 44.0176 52.5003 47.1716 49.8452 49.8285Z" fill="#9E1419"/>
<circle cx="30" cy="29" r="12" fill="white"/>
</svg>
