<svg width="24" height="16" viewBox="0 0 24 16" fill="none" xmlns="http://www.w3.org/2000/svg">
<path d="M5.66719 5.66563C2.955 5.66563 0.749999 7.87063 0.75 10.5828C0.75 13.295 2.955 15.5 5.66719 15.5C8.37937 15.5 10.5844 13.295 10.5844 10.5828L10.6078 9.89375C10.6078 4.44687 6.195 0.0574994 0.771561 0.0574999L0.771561 2.86063C2.65594 2.86063 4.4025 3.59563 5.73562 4.92781C5.98969 5.18187 6.2175 5.45656 6.44812 5.73219C6.19406 5.68625 5.91937 5.66375 5.66625 5.66375L5.66719 5.66469L5.66719 5.66563ZM18.3094 5.66562C15.5972 5.66563 13.3922 7.87062 13.3922 10.5828C13.3922 13.295 15.5972 15.5 18.3094 15.5C21.0216 15.5 23.2266 13.295 23.2266 10.5828L23.25 9.89375C23.25 4.44687 18.8616 0.0574983 13.4137 0.0574988L13.4137 2.86062C15.2981 2.86062 17.0681 3.59562 18.3778 4.92781C18.6319 5.18187 18.8831 5.45656 19.0903 5.73219C18.8362 5.68625 18.585 5.66375 18.3084 5.66375L18.3094 5.66469L18.3094 5.66562Z" fill="#9E1419"/>
</svg>
