<svg width="18" height="18" viewBox="0 0 18 18" fill="none" xmlns="http://www.w3.org/2000/svg">
<path fill-rule="evenodd" clip-rule="evenodd" d="M11.7297 13.1739C10.5654 14.0357 14.1858 10.3335 13.1555 11.7408C13.1813 11.7387 13.1335 11.8167 12.9734 12.0123C12.9734 12.0123 15.7247 14.7452 17.0753 16.136C17.5442 16.643 16.6982 17.655 16.1235 17.1266C14.9004 15.94 12.0064 12.991 12.0019 12.9862L11.7297 13.1739Z" fill="#828282"/>
<path d="M7.68701 14.5553C9.45732 14.5382 11.2098 13.8049 12.4699 12.5595C13.9666 11.0804 14.7373 8.89206 14.4685 6.80275C14.0079 3.22259 11.0647 0.792969 7.643 0.792969C5.04322 0.792969 2.51666 2.41925 1.40841 4.77737C0.560035 6.58275 0.558317 8.76247 1.40841 10.5709C2.50875 12.9126 4.99407 14.5302 7.59866 14.5553C7.62822 14.5553 7.65779 14.5553 7.68701 14.5553ZM7.60588 13.4083C4.9621 13.3828 2.49535 11.3382 2.00482 8.71675C1.659 6.86875 2.31179 4.86881 3.67166 3.55638C5.2591 2.02359 7.75438 1.51037 9.82925 2.37903C11.6855 3.15625 13.0749 4.96094 13.331 6.94919C13.5503 8.6535 12.9388 10.4396 11.7371 11.6699C10.6828 12.7493 9.20432 13.3935 7.67979 13.4083C7.65504 13.4083 7.63063 13.4083 7.60588 13.4083Z" fill="#828282"/>
</svg>
